<svg xmlns="http://www.w3.org/2000/svg" width="320" height="72" viewBox="0 0 320 72" fill="none" role="img" aria-label="Cubify wordmark">
  <defs>
    <linearGradient id="wg" x1="0" y1="0" x2="320" y2="72" gradientUnits="userSpaceOnUse">
      <stop offset="0%" stop-color="#020617"/>
      <stop offset="100%" stop-color="#0b1224"/>
    </linearGradient>
  </defs>
  <rect width="320" height="72" rx="18" fill="url(#wg)" stroke="#3b82f6" stroke-opacity="0.4"/>
  <g transform="translate(20,16) scale(1.25)">
    <path d="M16 3L28 10L16 17L4 10L16 3Z" fill="#E8E8EC"/>
    <path d="M4 10L16 17V29L4 22V10Z" fill="#3DFFA8"/>
    <path d="M16 17L28 10V22L16 29V17Z" fill="#FFC14A"/>
    <path d="M16 3L28 10L16 17L4 10L16 3Z M4 10L16 17V29L4 22V10Z M16 17L28 10V22L16 29V17Z" stroke="#020617" stroke-width="0.6" stroke-linejoin="round" opacity="0.25"/>
  </g>
  <text x="72" y="46" fill="#dbeafe" font-family="ui-sans-serif, system-ui, sans-serif" font-size="30" font-weight="800" letter-spacing="-0.8">Cubify</text>
  <circle cx="292" cy="36" r="5" fill="#3b82f6"/>
  <circle cx="292" cy="36" r="10" fill="none" stroke="#60a5fa" stroke-opacity="0.45"/>
</svg>
