<svg xmlns="http://www.w3.org/2000/svg" width="680" height="88" viewBox="0 0 680 88" fill="none" role="img" aria-label="Tech stack">
  <rect width="680" height="88" rx="16" fill="#020617" stroke="#3b82f6" stroke-opacity="0.3"/>
  <!-- pills -->
  <rect x="16" y="18" width="96" height="28" rx="14" fill="#3b82f6" fill-opacity="0.2" stroke="#60a5fa"/>
  <text x="64" y="37" text-anchor="middle" fill="#dbeafe" font-family="ui-sans-serif, system-ui, sans-serif" font-size="11" font-weight="700">Next.js 14</text>
  <rect x="124" y="18" width="80" height="28" rx="14" fill="#3b82f6" fill-opacity="0.15" stroke="#3b82f6"/>
  <text x="164" y="37" text-anchor="middle" fill="#dbeafe" font-family="ui-sans-serif, system-ui, sans-serif" font-size="11" font-weight="700">React 18</text>
  <rect x="216" y="18" width="100" height="28" rx="14" fill="#3b82f6" fill-opacity="0.15" stroke="#3b82f6"/>
  <text x="266" y="37" text-anchor="middle" fill="#dbeafe" font-family="ui-sans-serif, system-ui, sans-serif" font-size="11" font-weight="700">TypeScript</text>
  <rect x="328" y="18" width="96" height="28" rx="14" fill="#3b82f6" fill-opacity="0.15" stroke="#3b82f6"/>
  <text x="376" y="37" text-anchor="middle" fill="#dbeafe" font-family="ui-sans-serif, system-ui, sans-serif" font-size="11" font-weight="700">Tailwind 4</text>
  <rect x="436" y="18" width="120" height="28" rx="14" fill="#3b82f6" fill-opacity="0.15" stroke="#3b82f6"/>
  <text x="496" y="37" text-anchor="middle" fill="#dbeafe" font-family="ui-sans-serif, system-ui, sans-serif" font-size="11" font-weight="700">Framer Motion</text>
  <rect x="568" y="18" width="92" height="28" rx="14" fill="#3b82f6" fill-opacity="0.15" stroke="#3b82f6"/>
  <text x="614" y="37" text-anchor="middle" fill="#dbeafe" font-family="ui-sans-serif, system-ui, sans-serif" font-size="11" font-weight="700">Lenis</text>
  <rect x="16" y="54" width="88" height="24" rx="12" fill="#0b1224" stroke="#38bdf8" stroke-opacity="0.6"/>
  <text x="60" y="70" text-anchor="middle" fill="#93c5fd" font-family="ui-sans-serif, system-ui, sans-serif" font-size="10" font-weight="600">Python 3.12</text>
  <rect x="116" y="54" width="88" height="24" rx="12" fill="#0b1224" stroke="#38bdf8" stroke-opacity="0.6"/>
  <text x="160" y="70" text-anchor="middle" fill="#93c5fd" font-family="ui-sans-serif, system-ui, sans-serif" font-size="10" font-weight="600">Playwright</text>
  <rect x="216" y="54" width="64" height="24" rx="12" fill="#0b1224" stroke="#38bdf8" stroke-opacity="0.6"/>
  <text x="248" y="70" text-anchor="middle" fill="#93c5fd" font-family="ui-sans-serif, system-ui, sans-serif" font-size="10" font-weight="600">pnpm</text>
  <rect x="292" y="54" width="72" height="24" rx="12" fill="#0b1224" stroke="#38bdf8" stroke-opacity="0.6"/>
  <text x="328" y="70" text-anchor="middle" fill="#93c5fd" font-family="ui-sans-serif, system-ui, sans-serif" font-size="10" font-weight="600">Vercel</text>
  <rect x="376" y="54" width="72" height="24" rx="12" fill="#0b1224" stroke="#38bdf8" stroke-opacity="0.6"/>
  <text x="412" y="70" text-anchor="middle" fill="#93c5fd" font-family="ui-sans-serif, system-ui, sans-serif" font-size="10" font-weight="600">Geist</text>
</svg>
